Motion_pl07
version=1
nRows=12
nColumns=43
inDegrees=yes
endheader
time	pelvis_tilt	pelvis_list	pelvis_rotation	pelvis_tx	pelvis_ty	pelvis_tz	hip_flexion_r	hip_adduction_r	hip_rotation_r	knee_angle_r	ankle_angle_r	subtalar_angle_r	mtp_angle_r	hip_flexion_l	hip_adduction_l	hip_rotation_l	knee_angle_l	ankle_angle_l	subtalar_angle_l	mtp_angle_l	lumbar_extension	lumbar_bending	lumbar_rotation	neck_flexion	neck_lateral_bending	neck_rotation	arm_flex_r	arm_add_r	arm_rot_r	elbow_flex_r	pro_sup_r	wrist_flex_r	wrist_dev_r	hand_finger_flex_r	arm_flex_l	arm_add_l	arm_rot_l	elbow_flex_l	pro_sup_l	wrist_flex_l	wrist_dev_l	hand_finger_flex_l
      0.00250000	     -2.70054374	     -7.10446617	     93.23573922	      0.01755682	      1.84980372	      1.91504440	     67.50483594	     -5.12411341	      5.07956343	   -120.87348798	     28.78600868	     -7.17401178	     -1.38599180	     67.35994459	      0.93404334	      4.91788554	   -117.28830809	     30.44157986	     -9.88167547	      0.31847277	    -55.63628625	      0.53854610	     -2.62109696	     27.66642441	     -1.09826405	     -1.21226181	     10.03988158	    -18.46370209	     -4.11634739	     54.06504738	     75.57876529	    -40.59884688	      1.20092770	     54.40402042	     10.10818465	    -14.32135296	    -15.95975617	     74.41146051	    -77.03174524	    -17.10723835	    -16.77997021	    -90.00021046
      0.00500000	     -2.66538588	     -7.14755089	     93.27797280	      0.01766923	      1.84869973	      1.91473228	     67.61305127	     -5.07632875	      5.07805195	   -121.08520237	     28.85003747	     -7.14945584	     -1.35889776	     67.46268818	      0.97264301	      5.02246257	   -117.46440954	     30.52368076	     -9.99417383	      0.28074397	    -55.69588972	      0.57277507	     -2.58106575	     27.93015354	     -1.07544834	     -1.18569760	     10.61838936	    -18.48668272	     -4.07048121	     54.05713872	     75.54262913	    -40.58085449	      1.31754167	     54.35651105	     10.80477392	    -14.37496219	    -15.69459297	     74.31356768	    -77.04225935	    -17.11665012	    -16.94682117	    -90.00021046
      0.00750000	     -2.64409761	     -7.22207712	     93.29213046	      0.01765269	      1.84766278	      1.91453894	     67.75661242	     -5.06102069	      5.07636859	   -121.23351300	     28.87530215	     -7.14027531	     -1.33418735	     67.60375226	      1.01312830	      5.07594905	   -117.62193182	     30.57448608	    -10.06779334	      0.23461444	    -55.74299395	      0.59110948	     -2.51012348	     28.13760056	     -1.07643218	     -1.19608055	     11.20816986	    -18.61121081	     -3.94052484	     54.07044221	     75.52192307	    -40.54171120	      1.47414698	     54.30572877	     11.53778185	    -14.40547644	    -15.41391278	     74.22742885	    -77.13311913	    -17.17442421	    -17.14525057	    -90.00021046
      0.01000000	     -2.63537145	     -7.29416453	     93.29810382	      0.01770212	      1.84646603	      1.91428595	     67.91861630	     -5.02023744	      5.10337853	   -121.43764334	     28.88676458	     -7.15500516	     -1.31118426	     67.75249313	      1.05779342	      5.14081420	   -117.82179797	     30.62502693	    -10.12425852	      0.19012532	    -55.76758537	      0.59207860	     -2.46698767	     28.32064370	     -1.08279577	     -1.23436548	     11.78301977	    -18.72139738	     -3.78150108	     54.11228200	     75.50933790	    -40.50729808	      1.63664826	     54.25249598	     12.25776160	    -14.43927135	    -15.18225349	     74.10868529	    -77.28951931	    -17.25472151	    -17.36119598	    -90.00021046
      0.01250000	     -2.63413664	     -7.29642316	     93.28872245	      0.01768993	      1.84517815	      1.91402415	     68.02460622	     -5.01725195	      5.10555893	   -121.66411678	     28.91520836	     -7.17253312	     -1.30383674	     67.85096693	      1.06383824	      5.15745304	   -118.05625981	     30.66564811	    -10.14438273	      0.19034792	    -55.85090333	      0.59043516	     -2.48746640	     28.29489336	     -1.08784320	     -1.23925534	     12.30103222	    -18.73951925	     -3.78095299	     54.32042378	     75.51949490	    -40.49179117	      1.61357415	     54.24354074	     12.78047135	    -14.40954523	    -15.13512819	     74.26767831	    -77.32490228	    -17.25434677	    -17.35390389	    -90.00021046
      0.01500000	     -2.62387825	     -7.67942292	     93.24210242	      0.01777282	      1.84338649	      1.91405003	     68.60535014	     -4.90391384	      5.16408143	   -121.87751179	     28.76770807	     -7.36705550	     -1.13953617	     68.38135330	      1.09056498	      5.18094175	   -118.27225160	     30.69004663	    -10.25755679	     -0.32201670	    -55.53473459	      0.52741910	     -2.23100382	     28.51061482	     -1.18385773	     -1.60455561	     12.78580584	    -19.04937402	     -3.52674948	     54.49456995	     75.32869332	    -40.86169789	      2.77477991	     53.73273962	     13.84121745	    -14.43992294	    -14.87369670	     73.87042086	    -80.15332596	    -18.07620744	    -19.47305310	    -90.00021046
      0.01750000	     -2.64066417	     -7.71042560	     93.26371841	      0.01784828	      1.84233033	      1.91375175	     68.70200103	     -4.85658908	      5.22770629	   -122.07255962	     28.80591000	     -7.37588674	     -1.12596022	     68.46629189	      1.16939239	      5.25706596	   -118.44407718	     30.77101546	    -10.26024220	     -0.33475495	    -55.62446787	      0.52306273	     -2.26605903	     28.75541690	     -1.15218503	     -1.54445134	     13.44452893	    -19.08248657	     -3.37350998	     54.49854555	     75.40101829	    -40.79854730	      2.74052054	     53.72037856	     14.56988069	    -14.46847005	    -14.71313004	     73.75511221	    -80.22272943	    -18.05585208	    -19.59108941	    -90.00021046
      0.02000000	     -2.66530900	     -7.76485417	     93.27717733	      0.01782807	      1.84127768	      1.91348300	     68.83499004	     -4.86632093	      5.25324599	   -122.25426444	     28.83601597	     -7.39649467	     -1.11651912	     68.58195231	      1.22572815	      5.26339253	   -118.61673043	     30.83863317	    -10.25627020	     -0.34993635	    -55.68830963	      0.51066298	     -2.26665144	     28.98269956	     -1.13049575	     -1.51468928	     14.13976215	    -19.16984435	     -3.16852881	     54.42993211	     75.49731322	    -40.75909443	      2.75592026	     53.70119117	     15.34450618	    -14.48030255	    -14.49206128	     73.60683148	    -80.33609449	    -18.05650997	    -19.75321872	    -90.00021046
      0.02250000	     -2.69275024	     -7.82754384	     93.28559783	      0.01784609	      1.84015021	      1.91321107	     68.98317755	     -4.84613853	      5.31074535	   -122.44535759	     28.86103311	     -7.42580279	     -1.11120913	     68.70587098	      1.29777650	      5.29977270	   -118.79475256	     30.89551480	    -10.25694033	     -0.36653501	    -55.72944242	      0.49334006	     -2.28017175	     29.15180053	     -1.11434062	     -1.51832334	     14.82847426	    -19.24968358	     -2.93682156	     54.39774163	     75.60785869	    -40.74120198	      2.80215412	     53.68409472	     16.10938935	    -14.51031845	    -14.26102538	     73.45172689	    -80.47597554	    -18.06577087	    -19.94112851	    -90.00021046
      0.02500000	     -2.72501087	     -7.90045222	     93.28992672	      0.01781671	      1.83903703	      1.91298026	     69.15464785	     -4.84984182	      5.35690531	   -122.63502069	     28.87855274	     -7.45697657	     -1.10987345	     68.84547746	      1.35694413	      5.30200429	   -118.97575000	     30.94265017	    -10.25377892	     -0.38574734	    -55.75958230	      0.47354552	     -2.28073690	     29.31830866	     -1.10697144	     -1.53574426	     15.54304806	    -19.35288934	     -2.67428089	     54.33766886	     75.73829520	    -40.74675786	      2.89366267	     53.66455987	     16.90337313	    -14.53923774	    -13.98732550	     73.29564320	    -80.64434498	    -18.08371555	    -20.16323392	    -90.00021046
      0.02750000	     -2.75733243	     -7.96667386	     93.29505061	      0.01785490	      1.83786550	      1.91272544	     69.30816428	     -4.82790904	      5.42116162	   -122.83795591	     28.89375355	     -7.48432696	     -1.11067244	     68.99070729	      1.42023774	      5.32743390	   -119.15963392	     30.98416460	    -10.25446958	     -0.40363897	    -55.78596390	      0.44597334	     -2.29360974	     29.46162920	     -1.10579287	     -1.56080940	     16.24410836	    -19.43709204	     -2.41936504	     54.31789469	     75.86616904	    -40.76237500	      3.00525523	     53.64809745	     17.67327572	    -14.57024641	    -13.71815307	     73.17479005	    -80.80025286	    -18.09788915	    -20.37470182	    -90.00021046
      0.03000000	     -2.79186195	     -8.03742104	     93.29441931	      0.01785232	      1.83675198	      1.91250088	     69.47089332	     -4.82712178	      5.47176930	   -123.02988209	     28.90576291	     -7.50568079	     -1.11330182	     69.13561001	      1.46952510	      5.32710839	   -119.33823251	     31.01831306	    -10.25013881	     -0.42268986	    -55.81576857	      0.41849661	     -2.29310050	     29.61473567	     -1.11021288	     -1.58804725	     16.97477306	    -19.54039557	     -2.14092415	     54.27509503	     76.00434273	    -40.78647274	      3.15601443	     53.62940199	     18.46906962	    -14.60187544	    -13.40777148	     73.06882362	    -80.95137542	    -18.11181117	    -20.59490575	    -90.00021046
